<svg height="512pt" viewBox="0 -28 512.00101 512" width="512pt" xmlns="http://www.w3.org/2000/svg"><path d="m230.367188 112.8125c0-7.847656-4.117188-14.203125-9.195313-14.203125s-9.195313 6.355469-9.195313 14.203125c0 7.84375 4.117188 14.199219 9.195313 14.199219s9.195313-6.355469 9.195313-14.199219zm0 0"/><path d="m481.933594 245.015625c-14.371094-28.5625-30.882813-56.933594-41.296875-74.28125l49.789062-9.910156c.015625-.003907.027344-.003907.042969-.007813l13.585938-2.703125c3.542968-.703125 6.09375-3.816406 6.09375-7.425781 0-3.613281-2.550782-6.722656-6.09375-7.429688l-51.667969-10.28125c11.507812-9.167968 22.007812-20.890624 23.472656-33.847656.679687-6.015625-.339844-15.054687-9.078125-23.96875-8.65625-8.828125-16.402344-8.796875-21.382812-7.214844-9.707032 3.082032-17.632813 15.347657-23.679688 36.5625-3.105469-21.199218-9.144531-33.703124-18.269531-37.972656-4.683594-2.191406-12.304688-3.234375-22.023438 4.242188-7.707031 5.925781-11.84375 13.234375-12.300781 21.71875-.429688 7.972656 2.507812 16.558594 8.742188 25.652344l-50.835938-10.113282c-14.535156-38.667968-49.492188-66.511718-90.320312-72.023437-11.777344-17.113281-34.425782-36.011719-77.003907-36.011719-2.789062 0-5.355469 1.535156-6.675781 3.996094-1.316406 2.460937-1.175781 5.445312.371094 7.769531.105468.164063 9.976562 15.144531 16.605468 35.707031-25.417968 13.113282-45.167968 35.644532-54.714843 62.695313-1.390625 3.945312.679687 8.269531 4.621093 9.660156 3.945313 1.390625 8.269532-.675781 9.660157-4.621094 8.90625-25.238281 28.078125-45.933593 52.597656-56.773437 3.425781-1.515625 5.230469-5.308594 4.242187-8.921875-3.707031-13.558594-8.964843-25.324219-13.21875-33.585938 29.3125 3.539063 44.742188 18.441407 52.695313 31.199219 1.242187 1.988281 3.328125 3.289062 5.660156 3.527344 33.421875 3.398437 62.699219 24.074218 77.429688 53.792968l-36.21875-7.210937c-2.855469-.566406-5.78125.550781-7.53125 2.875-23.457031 31.199219-23.457031 69.957031 0 101.15625 1.449219 1.921875 3.703125 3.019531 6.054687 3.019531.488282 0 .984375-.046875 1.476563-.144531l32.519531-6.472656c-17.453125 29.199219-49.125 47.503906-83.722656 47.503906-53.765625 0-97.511719-43.742187-97.511719-97.511719 0-1.59375.039063-3.199218.117187-4.78125.199219-4.175781-3.023437-7.726562-7.199218-7.925781-4.183594-.207031-7.726563 3.019531-7.929688 7.195313-.085937 1.820312-.132812 3.675781-.132812 5.511718 0 44.289063 25.695312 82.683594 62.957031 101.082032-3.332031 16.839843-9.175781 30.550781-17.4375 40.855468-10.9375-3.1875-22.28125-4.800781-33.796875-4.800781-66.515625-.003906-120.625 54.105469-120.625 120.621094 0 16.132812 3.140625 31.808593 9.332031 46.585937 1.179688 2.8125 3.933594 4.644532 6.984375 4.644532h208.613282c3.050781 0 5.804687-1.832032 6.984374-4.644532 6.191407-14.773437 9.332032-30.449218 9.332032-46.585937 0-28.230469-9.792969-55.300781-27.699219-76.90625 13.800781-19.09375 23.257813-42.605469 28.175781-70.019531 36.074219-6.558594 67.203125-30.453126 82.589844-64.613282l75.308594-14.984375c-21.964844 37.109375-53.753906 94.605469-63.496094 131.765625-1.058594 4.042969 1.359375 8.183594 5.40625 9.246094.644531.167969 1.289062.246094 1.925781.246094 3.359375 0 6.429688-2.25 7.320313-5.652344 10.683594-40.765625 51.457031-110.753906 68.492187-138.957031.125-.203125.234375-.414063.335938-.625l5.238281-1.042969c45.105469 74.390625 72.011719 132.796875 72.011719 156.386719 0 40.964843-33.328125 74.292969-74.292969 74.292969-17.871094 0-35.140625-6.4375-48.628906-18.125-13.355469-11.574219-22.167969-27.515626-24.8125-44.882813-.628906-4.132813-4.488282-6.972656-8.625-6.34375-4.132813.628906-6.976563 4.492187-6.347656 8.625 3.1875 20.921875 13.792968 40.117187 29.867187 54.042969 16.238281 14.074218 37.03125 21.828125 58.546875 21.828125 49.316406 0 89.4375-40.121094 89.4375-89.4375 0-17.15625-9.835938-45.039063-30.066406-85.246094zm-284.066406 79.113281c-2.328126 2.921875-2.179688 7.101563.351562 9.851563 17.980469 19.519531 27.882812 44.886719 27.882812 71.4375 0 12.433593-2.128906 24.550781-6.335937 36.085937h-107.335937c1.382812-1.214844 2.734374-2.5 4.058593-3.859375.03125-.03125.0625-.066406.09375-.097656 6.605469-6.808594 12.425781-15.390625 17.355469-25.6875 1.027344-2.144531 1.976562-4.285156 2.859375-6.402344.003906-.015625.011719-.03125.015625-.042969 7.769531-18.691406 10.054688-35.539062 10.160156-36.324218.542969-4.144532-2.375-7.949219-6.519531-8.492188-4.15625-.546875-7.953125 2.371094-8.496094 6.519532-.039062.296874-1.6875 12.109374-6.730469 26.238281-4.660156-2.910157-6.648437-8.347657-6.785156-8.734375-1.324218-3.941406-5.589844-6.078125-9.542968-4.773438-3.972657 1.3125-6.132813 5.59375-4.824219 9.5625.207031.625 4.222656 12.378906 15.167969 17.980469-2.972657 5.882813-6.589844 11.660156-10.960938 16.742187-13.3125-3.152343-20.347656-21.210937-20.476562-21.546874-1.464844-3.910157-5.816407-5.898438-9.730469-4.445313-3.921875 1.457031-5.917969 5.816406-4.460938 9.738281.359375.96875 7.128907 18.683594 21.890625 27.273438-6.496094 3.941406-14.082031 6.351562-22.9375 6.351562h-51.085937c-4.207031-11.535156-6.335938-23.652344-6.335938-36.085937 0-58.164063 47.316407-105.480469 105.476563-105.480469 11.589844 0 22.976562 1.867188 33.84375 5.542969 2.820312.953125 5.941406.171875 7.972656-2.011719 11.304688-12.140625 19.25-28.550781 23.679688-48.871094 11.152343 3.703125 23.066406 5.71875 35.445312 5.71875 1.472656 0 2.941406-.035156 4.40625-.089844-5.144531 25.445313-14.566406 46.917969-28.101562 63.902344zm252.121093-241.75c.171875-.054687.351563-.082031.542969-.082031 1.828125 0 4.359375 2.367187 5.433594 3.464844 4.957031 5.054687 5.140625 9.078125 4.847656 11.664062-1.011719 8.929688-11.511719 20.40625-28.808594 31.496094l-.328125-.066406c5.507813-29.625 13.175781-44.84375 18.3125-46.476563zm-65.738281 10.929688c.210938-3.929688 2.308594-7.375 6.410156-10.527344 1.339844-1.03125 4.640625-3.339844 6.371094-2.53125.789062.371094 4.886719 2.976562 8.167969 18.117188 1.824219 8.421874 2.769531 17.953124 3.261719 25.867187l-6.558594-1.304687c-11.792969-11.484376-18.0625-21.980469-17.652344-29.621094zm-109.625 19.738281 164.75 32.78125h-176.382812c.882812-11.378906 4.847656-22.558594 11.632812-32.78125zm-10.96875 47.929687h148.414062l-137.445312 27.347657c-5.703125-8.585938-9.40625-17.855469-10.96875-27.347657zm0 0"/></svg>